<svg xmlns="http://www.w3.org/2000/svg" width="24" height="24" viewBox="0 0 24 24"><path d="M19.646 3.384c-2.167-2.177-5.052-3.378-8.147-3.384-6.329 0-11.487 5.148-11.499 11.478-.006 3.072 1.184 5.962 3.352 8.139 2.168 2.175 5.053 3.377 8.126 3.383h.022c6.328 0 11.487-5.149 11.499-11.479.006-3.071-1.185-5.961-3.353-8.137zm-8.146 19.116zm5.999-10.488l-5.5-.006v5.494c0 .276-.225.5-.5.5-.276 0-.5-.224-.5-.5v-5.495l-5.501-.005c-.276-.001-.5-.225-.499-.501 0-.275.224-.499.5-.499l5.5.005v-5.505c0-.276.224-.5.5-.5.275 0 .5.224.5.5v5.506l5.501.006c.275 0 .5.224.499.5 0 .276-.224.5-.5.5z"/></svg>